<?xml version="1.0" encoding="UTF-8"?>
<svg xmlns="http://www.w3.org/2000/svg" width="819" height="866" viewBox="0 0 819 866">
  <path d="M0,0 h40.95v40.95h-40.95z M40.95,0 h40.95v40.95h-40.95z M81.9,0 h40.95v40.95h-40.95z M122.85,0 h40.95v40.95h-40.95z M696.15,0 h40.95v40.95h-40.95z M737.1,0 h40.95v40.95h-40.95z M778.05,0 h40.95v40.95h-40.95z M0,40.95 h40.95v40.95h-40.95z M40.95,40.95 h40.95v40.95h-40.95z M778.05,40.95 h40.95v40.95h-40.95z M0,81.9 h40.95v40.95h-40.95z M0,122.85 h40.95v40.95h-40.95z M491.4,163.8 h40.95v40.95h-40.95z M655.2,163.8 h40.95v40.95h-40.95z M409.5,204.75 h40.95v40.95h-40.95z M573.3,204.75 h40.95v40.95h-40.95z M614.25,204.75 h40.95v40.95h-40.95z M573.3,245.7 h40.95v40.95h-40.95z M450.45,286.65 h40.95v40.95h-40.95z M245.7,327.6 h40.95v40.95h-40.95z M286.65,327.6 h40.95v40.95h-40.95z M409.5,327.6 h40.95v40.95h-40.95z M491.4,327.6 h40.95v40.95h-40.95z M163.8,450.45 h40.95v40.95h-40.95z M286.65,491.4 h40.95v40.95h-40.95z M327.6,491.4 h40.95v40.95h-40.95z M409.5,491.4 h40.95v40.95h-40.95z M286.65,532.35 h40.95v40.95h-40.95z M491.4,532.35 h40.95v40.95h-40.95z M163.8,614.25 h40.95v40.95h-40.95z M450.45,614.25 h40.95v40.95h-40.95z M204.75,655.2 h40.95v40.95h-40.95z M491.4,655.2 h40.95v40.95h-40.95z M614.25,655.2 h40.95v40.95h-40.95z M368.55,696.15 h40.95v40.95h-40.95z M532.35,696.15 h40.95v40.95h-40.95z M573.3,696.15 h40.95v40.95h-40.95z M655.2,696.15 h40.95v40.95h-40.95z M0,737.1 h40.95v40.95h-40.95z M0,778.05 h40.95v40.95h-40.95z M0,819 h40.95v40.95h-40.95z M40.95,819 h40.95v40.95h-40.95z M778.05,819 h40.95v40.95h-40.95z M0,859.95 h40.95v40.95h-40.95z M40.95,859.95 h40.95v40.95h-40.95z M81.9,859.95 h40.95v40.95h-40.95z M122.85,859.95 h40.95v40.95h-40.95z M696.15,859.95 h40.95v40.95h-40.95z M737.1,859.95 h40.95v40.95h-40.95z M778.05,859.95 h40.95v40.95h-40.95z" fill="#000000"/>
</svg>